<mxfile host="app.diagrams.net" agent="Mozilla/5.0 (Windows NT 10.0; Win64; x64) AppleWebKit/537.36 (KHTML, like Gecko) Chrome/136.0.0.0 Safari/537.36" version="27.1.1">
  <diagram name="Page-1" id="rBHFA6Y7nBq18i1wPeov">
    <mxGraphModel dx="464" dy="776" grid="1" gridSize="10" guides="1" tooltips="1" connect="1" arrows="1" fold="1" page="1" pageScale="1" pageWidth="827" pageHeight="1169" math="0" shadow="0">
      <root>
        <mxCell id="0" />
        <mxCell id="1" parent="0" />
        <mxCell id="kbJRGEqropHdvLp3n68f-18" style="edgeStyle=orthogonalEdgeStyle;rounded=0;orthogonalLoop=1;jettySize=auto;html=1;exitX=0;exitY=1;exitDx=0;exitDy=0;entryX=1;entryY=0.5;entryDx=0;entryDy=0;" parent="1" source="kbJRGEqropHdvLp3n68f-1" target="kbJRGEqropHdvLp3n68f-14" edge="1">
          <mxGeometry relative="1" as="geometry" />
        </mxCell>
        <mxCell id="kbJRGEqropHdvLp3n68f-1" value="Library" style="rounded=0;whiteSpace=wrap;html=1;fillColor=#dae8fc;strokeColor=#6c8ebf;" parent="1" vertex="1">
          <mxGeometry x="130" y="310" width="60" height="30" as="geometry" />
        </mxCell>
        <mxCell id="kbJRGEqropHdvLp3n68f-150" style="edgeStyle=orthogonalEdgeStyle;rounded=0;orthogonalLoop=1;jettySize=auto;html=1;exitX=0;exitY=0;exitDx=0;exitDy=0;" parent="1" source="kbJRGEqropHdvLp3n68f-2" target="kbJRGEqropHdvLp3n68f-26" edge="1">
          <mxGeometry relative="1" as="geometry">
            <Array as="points">
              <mxPoint x="670" y="266" />
              <mxPoint x="580" y="266" />
            </Array>
          </mxGeometry>
        </mxCell>
        <mxCell id="kbJRGEqropHdvLp3n68f-151" style="edgeStyle=orthogonalEdgeStyle;rounded=0;orthogonalLoop=1;jettySize=auto;html=1;exitX=0.25;exitY=0;exitDx=0;exitDy=0;entryX=1;entryY=1;entryDx=0;entryDy=0;" parent="1" source="kbJRGEqropHdvLp3n68f-2" target="kbJRGEqropHdvLp3n68f-25" edge="1">
          <mxGeometry relative="1" as="geometry" />
        </mxCell>
        <mxCell id="kbJRGEqropHdvLp3n68f-152" style="edgeStyle=orthogonalEdgeStyle;rounded=0;orthogonalLoop=1;jettySize=auto;html=1;exitX=0.5;exitY=0;exitDx=0;exitDy=0;entryX=0.5;entryY=1;entryDx=0;entryDy=0;" parent="1" source="kbJRGEqropHdvLp3n68f-2" target="kbJRGEqropHdvLp3n68f-24" edge="1">
          <mxGeometry relative="1" as="geometry">
            <mxPoint x="670" y="190" as="targetPoint" />
          </mxGeometry>
        </mxCell>
        <mxCell id="kbJRGEqropHdvLp3n68f-153" style="edgeStyle=orthogonalEdgeStyle;rounded=0;orthogonalLoop=1;jettySize=auto;html=1;exitX=0.75;exitY=0;exitDx=0;exitDy=0;entryX=0;entryY=1;entryDx=0;entryDy=0;" parent="1" source="kbJRGEqropHdvLp3n68f-2" target="kbJRGEqropHdvLp3n68f-23" edge="1">
          <mxGeometry relative="1" as="geometry" />
        </mxCell>
        <mxCell id="kbJRGEqropHdvLp3n68f-154" style="edgeStyle=orthogonalEdgeStyle;rounded=0;orthogonalLoop=1;jettySize=auto;html=1;exitX=1;exitY=0;exitDx=0;exitDy=0;entryX=0;entryY=0.5;entryDx=0;entryDy=0;" parent="1" source="kbJRGEqropHdvLp3n68f-2" target="kbJRGEqropHdvLp3n68f-22" edge="1">
          <mxGeometry relative="1" as="geometry" />
        </mxCell>
        <mxCell id="kbJRGEqropHdvLp3n68f-155" style="edgeStyle=orthogonalEdgeStyle;rounded=0;orthogonalLoop=1;jettySize=auto;html=1;exitX=1;exitY=0.25;exitDx=0;exitDy=0;entryX=0;entryY=0.5;entryDx=0;entryDy=0;" parent="1" source="kbJRGEqropHdvLp3n68f-2" target="kbJRGEqropHdvLp3n68f-21" edge="1">
          <mxGeometry relative="1" as="geometry">
            <Array as="points">
              <mxPoint x="720" y="310" />
              <mxPoint x="720" y="300" />
              <mxPoint x="765" y="300" />
              <mxPoint x="765" y="225" />
            </Array>
          </mxGeometry>
        </mxCell>
        <mxCell id="kbJRGEqropHdvLp3n68f-156" style="edgeStyle=orthogonalEdgeStyle;rounded=0;orthogonalLoop=1;jettySize=auto;html=1;exitX=1;exitY=0.5;exitDx=0;exitDy=0;entryX=0;entryY=1;entryDx=0;entryDy=0;" parent="1" source="kbJRGEqropHdvLp3n68f-2" target="kbJRGEqropHdvLp3n68f-34" edge="1">
          <mxGeometry relative="1" as="geometry">
            <Array as="points">
              <mxPoint x="730" y="310" />
              <mxPoint x="804" y="310" />
            </Array>
          </mxGeometry>
        </mxCell>
        <mxCell id="kbJRGEqropHdvLp3n68f-2" value="Book" style="rounded=0;whiteSpace=wrap;html=1;fillColor=#d5e8d4;strokeColor=#82b366;" parent="1" vertex="1">
          <mxGeometry x="670" y="302" width="60" height="30" as="geometry" />
        </mxCell>
        <mxCell id="kbJRGEqropHdvLp3n68f-164" style="edgeStyle=orthogonalEdgeStyle;rounded=0;orthogonalLoop=1;jettySize=auto;html=1;exitX=0;exitY=0;exitDx=0;exitDy=0;entryX=0.5;entryY=1;entryDx=0;entryDy=0;" parent="1" source="kbJRGEqropHdvLp3n68f-3" target="kbJRGEqropHdvLp3n68f-30" edge="1">
          <mxGeometry relative="1" as="geometry">
            <Array as="points">
              <mxPoint x="1430" y="290" />
              <mxPoint x="1355" y="290" />
            </Array>
          </mxGeometry>
        </mxCell>
        <mxCell id="kbJRGEqropHdvLp3n68f-165" style="edgeStyle=orthogonalEdgeStyle;rounded=0;orthogonalLoop=1;jettySize=auto;html=1;exitX=0.25;exitY=0;exitDx=0;exitDy=0;entryX=0.5;entryY=1;entryDx=0;entryDy=0;" parent="1" source="kbJRGEqropHdvLp3n68f-3" target="kbJRGEqropHdvLp3n68f-29" edge="1">
          <mxGeometry relative="1" as="geometry" />
        </mxCell>
        <mxCell id="kbJRGEqropHdvLp3n68f-166" style="edgeStyle=orthogonalEdgeStyle;rounded=0;orthogonalLoop=1;jettySize=auto;html=1;exitX=0.5;exitY=0;exitDx=0;exitDy=0;entryX=0;entryY=1;entryDx=0;entryDy=0;" parent="1" source="kbJRGEqropHdvLp3n68f-3" target="kbJRGEqropHdvLp3n68f-28" edge="1">
          <mxGeometry relative="1" as="geometry" />
        </mxCell>
        <mxCell id="kbJRGEqropHdvLp3n68f-167" style="edgeStyle=orthogonalEdgeStyle;rounded=0;orthogonalLoop=1;jettySize=auto;html=1;exitX=1;exitY=0;exitDx=0;exitDy=0;entryX=0;entryY=0;entryDx=0;entryDy=0;" parent="1" source="kbJRGEqropHdvLp3n68f-3" target="kbJRGEqropHdvLp3n68f-32" edge="1">
          <mxGeometry relative="1" as="geometry" />
        </mxCell>
        <mxCell id="kbJRGEqropHdvLp3n68f-168" style="edgeStyle=orthogonalEdgeStyle;rounded=0;orthogonalLoop=1;jettySize=auto;html=1;exitX=1;exitY=0.5;exitDx=0;exitDy=0;entryX=0.5;entryY=0;entryDx=0;entryDy=0;" parent="1" source="kbJRGEqropHdvLp3n68f-3" target="kbJRGEqropHdvLp3n68f-31" edge="1">
          <mxGeometry relative="1" as="geometry">
            <Array as="points">
              <mxPoint x="1565" y="320" />
            </Array>
          </mxGeometry>
        </mxCell>
        <mxCell id="kbJRGEqropHdvLp3n68f-3" value="Member" style="rounded=0;whiteSpace=wrap;html=1;fillColor=#bac8d3;strokeColor=#23445d;" parent="1" vertex="1">
          <mxGeometry x="1430" y="305" width="60" height="30" as="geometry" />
        </mxCell>
        <mxCell id="kbJRGEqropHdvLp3n68f-67" style="edgeStyle=orthogonalEdgeStyle;rounded=0;orthogonalLoop=1;jettySize=auto;html=1;exitX=0;exitY=0.5;exitDx=0;exitDy=0;" parent="1" source="kbJRGEqropHdvLp3n68f-5" target="kbJRGEqropHdvLp3n68f-35" edge="1">
          <mxGeometry relative="1" as="geometry" />
        </mxCell>
        <mxCell id="kbJRGEqropHdvLp3n68f-68" style="edgeStyle=orthogonalEdgeStyle;rounded=0;orthogonalLoop=1;jettySize=auto;html=1;exitX=0;exitY=1;exitDx=0;exitDy=0;entryX=1;entryY=0;entryDx=0;entryDy=0;" parent="1" source="kbJRGEqropHdvLp3n68f-5" target="kbJRGEqropHdvLp3n68f-36" edge="1">
          <mxGeometry relative="1" as="geometry" />
        </mxCell>
        <mxCell id="kbJRGEqropHdvLp3n68f-71" style="edgeStyle=orthogonalEdgeStyle;rounded=0;orthogonalLoop=1;jettySize=auto;html=1;exitX=0.75;exitY=1;exitDx=0;exitDy=0;entryX=0;entryY=0;entryDx=0;entryDy=0;" parent="1" source="kbJRGEqropHdvLp3n68f-5" target="kbJRGEqropHdvLp3n68f-39" edge="1">
          <mxGeometry relative="1" as="geometry" />
        </mxCell>
        <mxCell id="kbJRGEqropHdvLp3n68f-73" style="edgeStyle=orthogonalEdgeStyle;rounded=0;orthogonalLoop=1;jettySize=auto;html=1;exitX=1;exitY=1;exitDx=0;exitDy=0;entryX=0;entryY=0;entryDx=0;entryDy=0;" parent="1" source="kbJRGEqropHdvLp3n68f-5" target="kbJRGEqropHdvLp3n68f-40" edge="1">
          <mxGeometry relative="1" as="geometry" />
        </mxCell>
        <mxCell id="kbJRGEqropHdvLp3n68f-74" style="edgeStyle=orthogonalEdgeStyle;rounded=0;orthogonalLoop=1;jettySize=auto;html=1;exitX=1;exitY=0.5;exitDx=0;exitDy=0;entryX=0;entryY=0.5;entryDx=0;entryDy=0;" parent="1" source="kbJRGEqropHdvLp3n68f-5" target="kbJRGEqropHdvLp3n68f-41" edge="1">
          <mxGeometry relative="1" as="geometry" />
        </mxCell>
        <mxCell id="kbJRGEqropHdvLp3n68f-5" value="Loan" style="rounded=0;whiteSpace=wrap;html=1;fillColor=#ffe6cc;strokeColor=#d79b00;" parent="1" vertex="1">
          <mxGeometry x="1340" y="700" width="60" height="30" as="geometry" />
        </mxCell>
        <mxCell id="kbJRGEqropHdvLp3n68f-80" style="edgeStyle=orthogonalEdgeStyle;rounded=0;orthogonalLoop=1;jettySize=auto;html=1;exitX=0;exitY=0.5;exitDx=0;exitDy=0;" parent="1" source="kbJRGEqropHdvLp3n68f-6" target="kbJRGEqropHdvLp3n68f-45" edge="1">
          <mxGeometry relative="1" as="geometry" />
        </mxCell>
        <mxCell id="kbJRGEqropHdvLp3n68f-169" style="edgeStyle=orthogonalEdgeStyle;rounded=0;orthogonalLoop=1;jettySize=auto;html=1;exitX=1;exitY=0.75;exitDx=0;exitDy=0;entryX=0;entryY=0.5;entryDx=0;entryDy=0;" parent="1" source="kbJRGEqropHdvLp3n68f-6" target="kbJRGEqropHdvLp3n68f-47" edge="1">
          <mxGeometry relative="1" as="geometry" />
        </mxCell>
        <mxCell id="kbJRGEqropHdvLp3n68f-171" style="edgeStyle=orthogonalEdgeStyle;rounded=0;orthogonalLoop=1;jettySize=auto;html=1;exitX=0.5;exitY=1;exitDx=0;exitDy=0;entryX=0;entryY=0;entryDx=0;entryDy=0;" parent="1" source="kbJRGEqropHdvLp3n68f-6" target="kbJRGEqropHdvLp3n68f-44" edge="1">
          <mxGeometry relative="1" as="geometry" />
        </mxCell>
        <mxCell id="kbJRGEqropHdvLp3n68f-172" style="edgeStyle=orthogonalEdgeStyle;rounded=0;orthogonalLoop=1;jettySize=auto;html=1;exitX=0.75;exitY=1;exitDx=0;exitDy=0;entryX=0;entryY=0.5;entryDx=0;entryDy=0;" parent="1" source="kbJRGEqropHdvLp3n68f-6" target="kbJRGEqropHdvLp3n68f-46" edge="1">
          <mxGeometry relative="1" as="geometry" />
        </mxCell>
        <mxCell id="kbJRGEqropHdvLp3n68f-6" value="Payment" style="rounded=0;whiteSpace=wrap;html=1;fillColor=#e1d5e7;strokeColor=#9673a6;" parent="1" vertex="1">
          <mxGeometry x="670" y="614" width="60" height="30" as="geometry" />
        </mxCell>
        <mxCell id="kbJRGEqropHdvLp3n68f-75" style="edgeStyle=orthogonalEdgeStyle;rounded=0;orthogonalLoop=1;jettySize=auto;html=1;exitX=0;exitY=0.5;exitDx=0;exitDy=0;entryX=0.5;entryY=0;entryDx=0;entryDy=0;" parent="1" source="kbJRGEqropHdvLp3n68f-7" target="kbJRGEqropHdvLp3n68f-49" edge="1">
          <mxGeometry relative="1" as="geometry" />
        </mxCell>
        <mxCell id="kbJRGEqropHdvLp3n68f-76" style="edgeStyle=orthogonalEdgeStyle;rounded=0;orthogonalLoop=1;jettySize=auto;html=1;exitX=0;exitY=1;exitDx=0;exitDy=0;entryX=1;entryY=0;entryDx=0;entryDy=0;" parent="1" source="kbJRGEqropHdvLp3n68f-7" target="kbJRGEqropHdvLp3n68f-50" edge="1">
          <mxGeometry relative="1" as="geometry" />
        </mxCell>
        <mxCell id="kbJRGEqropHdvLp3n68f-77" style="edgeStyle=orthogonalEdgeStyle;rounded=0;orthogonalLoop=1;jettySize=auto;html=1;exitX=0.25;exitY=1;exitDx=0;exitDy=0;" parent="1" source="kbJRGEqropHdvLp3n68f-7" target="kbJRGEqropHdvLp3n68f-51" edge="1">
          <mxGeometry relative="1" as="geometry" />
        </mxCell>
        <mxCell id="kbJRGEqropHdvLp3n68f-79" style="edgeStyle=orthogonalEdgeStyle;rounded=0;orthogonalLoop=1;jettySize=auto;html=1;exitX=1;exitY=0.5;exitDx=0;exitDy=0;entryX=0.5;entryY=0;entryDx=0;entryDy=0;" parent="1" source="kbJRGEqropHdvLp3n68f-7" target="kbJRGEqropHdvLp3n68f-53" edge="1">
          <mxGeometry relative="1" as="geometry" />
        </mxCell>
        <mxCell id="kbJRGEqropHdvLp3n68f-7" value="Staff" style="rounded=0;whiteSpace=wrap;html=1;fillColor=#f8cecc;strokeColor=#b85450;" parent="1" vertex="1">
          <mxGeometry x="130" y="590" width="60" height="30" as="geometry" />
        </mxCell>
        <mxCell id="kbJRGEqropHdvLp3n68f-157" style="edgeStyle=orthogonalEdgeStyle;rounded=0;orthogonalLoop=1;jettySize=auto;html=1;exitX=0;exitY=0;exitDx=0;exitDy=0;entryX=0;entryY=1;entryDx=0;entryDy=0;" parent="1" source="kbJRGEqropHdvLp3n68f-8" target="kbJRGEqropHdvLp3n68f-54" edge="1">
          <mxGeometry relative="1" as="geometry" />
        </mxCell>
        <mxCell id="kbJRGEqropHdvLp3n68f-159" style="edgeStyle=orthogonalEdgeStyle;rounded=0;orthogonalLoop=1;jettySize=auto;html=1;exitX=0.5;exitY=0;exitDx=0;exitDy=0;entryX=0;entryY=1;entryDx=0;entryDy=0;" parent="1" source="kbJRGEqropHdvLp3n68f-8" target="kbJRGEqropHdvLp3n68f-56" edge="1">
          <mxGeometry relative="1" as="geometry" />
        </mxCell>
        <mxCell id="kbJRGEqropHdvLp3n68f-160" style="edgeStyle=orthogonalEdgeStyle;rounded=0;orthogonalLoop=1;jettySize=auto;html=1;exitX=0.75;exitY=0;exitDx=0;exitDy=0;entryX=0;entryY=1;entryDx=0;entryDy=0;" parent="1" source="kbJRGEqropHdvLp3n68f-8" target="kbJRGEqropHdvLp3n68f-57" edge="1">
          <mxGeometry relative="1" as="geometry">
            <Array as="points">
              <mxPoint x="1095" y="241" />
              <mxPoint x="1100" y="241" />
              <mxPoint x="1100" y="176" />
            </Array>
          </mxGeometry>
        </mxCell>
        <mxCell id="kbJRGEqropHdvLp3n68f-161" style="edgeStyle=orthogonalEdgeStyle;rounded=0;orthogonalLoop=1;jettySize=auto;html=1;exitX=1;exitY=0;exitDx=0;exitDy=0;entryX=0;entryY=0.5;entryDx=0;entryDy=0;" parent="1" source="kbJRGEqropHdvLp3n68f-8" target="kbJRGEqropHdvLp3n68f-58" edge="1">
          <mxGeometry relative="1" as="geometry" />
        </mxCell>
        <mxCell id="kbJRGEqropHdvLp3n68f-162" style="edgeStyle=orthogonalEdgeStyle;rounded=0;orthogonalLoop=1;jettySize=auto;html=1;exitX=1;exitY=0.25;exitDx=0;exitDy=0;" parent="1" source="kbJRGEqropHdvLp3n68f-8" target="kbJRGEqropHdvLp3n68f-59" edge="1">
          <mxGeometry relative="1" as="geometry" />
        </mxCell>
        <mxCell id="kbJRGEqropHdvLp3n68f-8" value="Review" style="rounded=0;whiteSpace=wrap;html=1;fillColor=#ffe6cc;strokeColor=#d79b00;" parent="1" vertex="1">
          <mxGeometry x="1045" y="305" width="60" height="30" as="geometry" />
        </mxCell>
        <mxCell id="kbJRGEqropHdvLp3n68f-10" value="Location" style="ellipse;whiteSpace=wrap;html=1;" parent="1" vertex="1">
          <mxGeometry x="60" y="230" width="70" height="30" as="geometry" />
        </mxCell>
        <mxCell id="kbJRGEqropHdvLp3n68f-11" value="ContactNumber" style="ellipse;whiteSpace=wrap;html=1;" parent="1" vertex="1">
          <mxGeometry x="140" y="230" width="90" height="30" as="geometry" />
        </mxCell>
        <mxCell id="kbJRGEqropHdvLp3n68f-12" value="EstablishedYear" style="ellipse;whiteSpace=wrap;html=1;" parent="1" vertex="1">
          <mxGeometry x="220" y="250" width="100" height="30" as="geometry" />
        </mxCell>
        <mxCell id="kbJRGEqropHdvLp3n68f-13" value="Name" style="ellipse;whiteSpace=wrap;html=1;" parent="1" vertex="1">
          <mxGeometry x="20" y="280" width="70" height="30" as="geometry" />
        </mxCell>
        <mxCell id="kbJRGEqropHdvLp3n68f-14" value="LibraryID" style="ellipse;whiteSpace=wrap;html=1;" parent="1" vertex="1">
          <mxGeometry x="20" y="320" width="70" height="30" as="geometry" />
        </mxCell>
        <mxCell id="kbJRGEqropHdvLp3n68f-15" style="edgeStyle=orthogonalEdgeStyle;rounded=0;orthogonalLoop=1;jettySize=auto;html=1;exitX=1;exitY=0.25;exitDx=0;exitDy=0;entryX=0.36;entryY=0.933;entryDx=0;entryDy=0;entryPerimeter=0;" parent="1" source="kbJRGEqropHdvLp3n68f-1" target="kbJRGEqropHdvLp3n68f-12" edge="1">
          <mxGeometry relative="1" as="geometry" />
        </mxCell>
        <mxCell id="kbJRGEqropHdvLp3n68f-16" style="edgeStyle=orthogonalEdgeStyle;rounded=0;orthogonalLoop=1;jettySize=auto;html=1;exitX=0.75;exitY=0;exitDx=0;exitDy=0;entryX=0.389;entryY=1;entryDx=0;entryDy=0;entryPerimeter=0;" parent="1" source="kbJRGEqropHdvLp3n68f-1" target="kbJRGEqropHdvLp3n68f-11" edge="1">
          <mxGeometry relative="1" as="geometry" />
        </mxCell>
        <mxCell id="kbJRGEqropHdvLp3n68f-19" style="edgeStyle=orthogonalEdgeStyle;rounded=0;orthogonalLoop=1;jettySize=auto;html=1;exitX=0;exitY=0.5;exitDx=0;exitDy=0;entryX=0.957;entryY=0.8;entryDx=0;entryDy=0;entryPerimeter=0;" parent="1" source="kbJRGEqropHdvLp3n68f-1" target="kbJRGEqropHdvLp3n68f-13" edge="1">
          <mxGeometry relative="1" as="geometry" />
        </mxCell>
        <mxCell id="kbJRGEqropHdvLp3n68f-20" style="edgeStyle=orthogonalEdgeStyle;rounded=0;orthogonalLoop=1;jettySize=auto;html=1;exitX=0;exitY=0;exitDx=0;exitDy=0;entryX=0.657;entryY=1.067;entryDx=0;entryDy=0;entryPerimeter=0;" parent="1" source="kbJRGEqropHdvLp3n68f-1" target="kbJRGEqropHdvLp3n68f-10" edge="1">
          <mxGeometry relative="1" as="geometry" />
        </mxCell>
        <mxCell id="kbJRGEqropHdvLp3n68f-21" value="IsAvailable" style="ellipse;whiteSpace=wrap;html=1;" parent="1" vertex="1">
          <mxGeometry x="800" y="210" width="70" height="30" as="geometry" />
        </mxCell>
        <mxCell id="kbJRGEqropHdvLp3n68f-22" value="Price" style="ellipse;whiteSpace=wrap;html=1;" parent="1" vertex="1">
          <mxGeometry x="770" y="170" width="70" height="30" as="geometry" />
        </mxCell>
        <mxCell id="kbJRGEqropHdvLp3n68f-23" value="Genre" style="ellipse;whiteSpace=wrap;html=1;" parent="1" vertex="1">
          <mxGeometry x="700" y="150" width="70" height="30" as="geometry" />
        </mxCell>
        <mxCell id="kbJRGEqropHdvLp3n68f-24" value="Title" style="ellipse;whiteSpace=wrap;html=1;" parent="1" vertex="1">
          <mxGeometry x="620" y="140" width="70" height="30" as="geometry" />
        </mxCell>
        <mxCell id="kbJRGEqropHdvLp3n68f-25" value="ISBN" style="ellipse;whiteSpace=wrap;html=1;" parent="1" vertex="1">
          <mxGeometry x="540" y="160" width="70" height="30" as="geometry" />
        </mxCell>
        <mxCell id="kbJRGEqropHdvLp3n68f-26" value="BookID&amp;nbsp;" style="ellipse;whiteSpace=wrap;html=1;" parent="1" vertex="1">
          <mxGeometry x="520" y="200" width="70" height="30" as="geometry" />
        </mxCell>
        <mxCell id="kbJRGEqropHdvLp3n68f-27" value="LibraryID" style="ellipse;whiteSpace=wrap;html=1;" parent="1" vertex="1">
          <mxGeometry x="500" y="250" width="70" height="30" as="geometry" />
        </mxCell>
        <mxCell id="kbJRGEqropHdvLp3n68f-28" value="MemberID&amp;nbsp;" style="ellipse;whiteSpace=wrap;html=1;" parent="1" vertex="1">
          <mxGeometry x="1470" y="220" width="70" height="30" as="geometry" />
        </mxCell>
        <mxCell id="kbJRGEqropHdvLp3n68f-29" value="FullName" style="ellipse;whiteSpace=wrap;html=1;" parent="1" vertex="1">
          <mxGeometry x="1390" y="200" width="70" height="30" as="geometry" />
        </mxCell>
        <mxCell id="kbJRGEqropHdvLp3n68f-30" value="Email" style="ellipse;whiteSpace=wrap;html=1;" parent="1" vertex="1">
          <mxGeometry x="1320" y="240" width="70" height="30" as="geometry" />
        </mxCell>
        <mxCell id="kbJRGEqropHdvLp3n68f-31" value="Phone" style="ellipse;whiteSpace=wrap;html=1;" parent="1" vertex="1">
          <mxGeometry x="1530" y="332" width="70" height="30" as="geometry" />
        </mxCell>
        <mxCell id="kbJRGEqropHdvLp3n68f-32" value="MembershipStartDate" style="ellipse;whiteSpace=wrap;html=1;" parent="1" vertex="1">
          <mxGeometry x="1520" y="275" width="120" height="30" as="geometry" />
        </mxCell>
        <mxCell id="kbJRGEqropHdvLp3n68f-34" value="ShelfLocation" style="ellipse;whiteSpace=wrap;html=1;" parent="1" vertex="1">
          <mxGeometry x="794" y="250" width="70" height="30" as="geometry" />
        </mxCell>
        <mxCell id="kbJRGEqropHdvLp3n68f-35" value="LoanID&amp;nbsp;" style="ellipse;whiteSpace=wrap;html=1;" parent="1" vertex="1">
          <mxGeometry x="1200" y="740" width="70" height="30" as="geometry" />
        </mxCell>
        <mxCell id="kbJRGEqropHdvLp3n68f-36" value="MemberID&amp;nbsp;" style="ellipse;whiteSpace=wrap;html=1;" parent="1" vertex="1">
          <mxGeometry x="1230" y="780" width="70" height="30" as="geometry" />
        </mxCell>
        <mxCell id="kbJRGEqropHdvLp3n68f-37" value="BookID&amp;nbsp;" style="ellipse;whiteSpace=wrap;html=1;" parent="1" vertex="1">
          <mxGeometry x="1280" y="810" width="70" height="30" as="geometry" />
        </mxCell>
        <mxCell id="kbJRGEqropHdvLp3n68f-38" value="LoanDate" style="ellipse;whiteSpace=wrap;html=1;" parent="1" vertex="1">
          <mxGeometry x="1360" y="820" width="70" height="30" as="geometry" />
        </mxCell>
        <mxCell id="kbJRGEqropHdvLp3n68f-39" value="DueDate" style="ellipse;whiteSpace=wrap;html=1;" parent="1" vertex="1">
          <mxGeometry x="1420" y="800" width="70" height="30" as="geometry" />
        </mxCell>
        <mxCell id="kbJRGEqropHdvLp3n68f-40" value="ReturnDate" style="ellipse;whiteSpace=wrap;html=1;" parent="1" vertex="1">
          <mxGeometry x="1460" y="770" width="70" height="30" as="geometry" />
        </mxCell>
        <mxCell id="kbJRGEqropHdvLp3n68f-41" value="Status" style="ellipse;whiteSpace=wrap;html=1;" parent="1" vertex="1">
          <mxGeometry x="1470" y="710" width="70" height="30" as="geometry" />
        </mxCell>
        <mxCell id="kbJRGEqropHdvLp3n68f-42" value="LoanID&amp;nbsp;" style="ellipse;whiteSpace=wrap;html=1;" parent="1" vertex="1">
          <mxGeometry x="620" y="710" width="70" height="30" as="geometry" />
        </mxCell>
        <mxCell id="kbJRGEqropHdvLp3n68f-44" value="PaymentDate" style="ellipse;whiteSpace=wrap;html=1;" parent="1" vertex="1">
          <mxGeometry x="695" y="710" width="80" height="30" as="geometry" />
        </mxCell>
        <mxCell id="kbJRGEqropHdvLp3n68f-45" value="PaymentID&amp;nbsp;" style="ellipse;whiteSpace=wrap;html=1;" parent="1" vertex="1">
          <mxGeometry x="560" y="680" width="70" height="30" as="geometry" />
        </mxCell>
        <mxCell id="kbJRGEqropHdvLp3n68f-46" value="&lt;div&gt;Amount&lt;/div&gt;" style="ellipse;whiteSpace=wrap;html=1;" parent="1" vertex="1">
          <mxGeometry x="790" y="690" width="70" height="30" as="geometry" />
        </mxCell>
        <mxCell id="kbJRGEqropHdvLp3n68f-47" value="Method" style="ellipse;whiteSpace=wrap;html=1;" parent="1" vertex="1">
          <mxGeometry x="794" y="650" width="70" height="30" as="geometry" />
        </mxCell>
        <mxCell id="kbJRGEqropHdvLp3n68f-49" value="StaffID&amp;nbsp;" style="ellipse;whiteSpace=wrap;html=1;" parent="1" vertex="1">
          <mxGeometry x="30" y="620" width="70" height="30" as="geometry" />
        </mxCell>
        <mxCell id="kbJRGEqropHdvLp3n68f-50" value="LibraryID&amp;nbsp;" style="ellipse;whiteSpace=wrap;html=1;" parent="1" vertex="1">
          <mxGeometry x="65" y="650" width="70" height="30" as="geometry" />
        </mxCell>
        <mxCell id="kbJRGEqropHdvLp3n68f-51" value="FullName" style="ellipse;whiteSpace=wrap;html=1;" parent="1" vertex="1">
          <mxGeometry x="125" y="670" width="70" height="30" as="geometry" />
        </mxCell>
        <mxCell id="kbJRGEqropHdvLp3n68f-52" value="Position" style="ellipse;whiteSpace=wrap;html=1;" parent="1" vertex="1">
          <mxGeometry x="200" y="660" width="70" height="30" as="geometry" />
        </mxCell>
        <mxCell id="kbJRGEqropHdvLp3n68f-53" value="ContactNumber" style="ellipse;whiteSpace=wrap;html=1;" parent="1" vertex="1">
          <mxGeometry x="221" y="620" width="99" height="30" as="geometry" />
        </mxCell>
        <mxCell id="kbJRGEqropHdvLp3n68f-54" value="ReviewID&amp;nbsp;" style="ellipse;whiteSpace=wrap;html=1;" parent="1" vertex="1">
          <mxGeometry x="945" y="200" width="70" height="30" as="geometry" />
        </mxCell>
        <mxCell id="kbJRGEqropHdvLp3n68f-55" value="ReviewID&amp;nbsp;" style="ellipse;whiteSpace=wrap;html=1;" parent="1" vertex="1">
          <mxGeometry x="965" y="160" width="70" height="30" as="geometry" />
        </mxCell>
        <mxCell id="kbJRGEqropHdvLp3n68f-56" value="BookID&amp;nbsp;" style="ellipse;whiteSpace=wrap;html=1;" parent="1" vertex="1">
          <mxGeometry x="1035" y="140" width="70" height="30" as="geometry" />
        </mxCell>
        <mxCell id="kbJRGEqropHdvLp3n68f-57" value="Rating" style="ellipse;whiteSpace=wrap;html=1;" parent="1" vertex="1">
          <mxGeometry x="1105" y="150" width="70" height="30" as="geometry" />
        </mxCell>
        <mxCell id="kbJRGEqropHdvLp3n68f-58" value="Comments" style="ellipse;whiteSpace=wrap;html=1;" parent="1" vertex="1">
          <mxGeometry x="1145" y="200" width="70" height="30" as="geometry" />
        </mxCell>
        <mxCell id="kbJRGEqropHdvLp3n68f-59" value="ReviewDate" style="ellipse;whiteSpace=wrap;html=1;" parent="1" vertex="1">
          <mxGeometry x="1145" y="240" width="70" height="30" as="geometry" />
        </mxCell>
        <mxCell id="kbJRGEqropHdvLp3n68f-69" style="edgeStyle=orthogonalEdgeStyle;rounded=0;orthogonalLoop=1;jettySize=auto;html=1;exitX=0.25;exitY=1;exitDx=0;exitDy=0;entryX=0.729;entryY=-0.033;entryDx=0;entryDy=0;entryPerimeter=0;" parent="1" source="kbJRGEqropHdvLp3n68f-5" target="kbJRGEqropHdvLp3n68f-37" edge="1">
          <mxGeometry relative="1" as="geometry" />
        </mxCell>
        <mxCell id="kbJRGEqropHdvLp3n68f-70" style="edgeStyle=orthogonalEdgeStyle;rounded=0;orthogonalLoop=1;jettySize=auto;html=1;exitX=0.5;exitY=1;exitDx=0;exitDy=0;entryX=0.143;entryY=0.667;entryDx=0;entryDy=0;entryPerimeter=0;" parent="1" source="kbJRGEqropHdvLp3n68f-5" target="kbJRGEqropHdvLp3n68f-38" edge="1">
          <mxGeometry relative="1" as="geometry" />
        </mxCell>
        <mxCell id="kbJRGEqropHdvLp3n68f-78" style="edgeStyle=orthogonalEdgeStyle;rounded=0;orthogonalLoop=1;jettySize=auto;html=1;exitX=0.75;exitY=1;exitDx=0;exitDy=0;entryX=0.029;entryY=0.2;entryDx=0;entryDy=0;entryPerimeter=0;" parent="1" source="kbJRGEqropHdvLp3n68f-7" target="kbJRGEqropHdvLp3n68f-52" edge="1">
          <mxGeometry relative="1" as="geometry" />
        </mxCell>
        <mxCell id="kbJRGEqropHdvLp3n68f-108" value="Owns" style="rhombus;whiteSpace=wrap;html=1;fillColor=#ffcd28;gradientColor=#ffa500;strokeColor=#d79b00;" parent="1" vertex="1">
          <mxGeometry x="370" y="305" width="60" height="40" as="geometry" />
        </mxCell>
        <mxCell id="kbJRGEqropHdvLp3n68f-118" value="employs" style="rhombus;whiteSpace=wrap;html=1;fillColor=#ffcd28;gradientColor=#ffa500;strokeColor=#d79b00;" parent="1" vertex="1">
          <mxGeometry x="130" y="450" width="60" height="40" as="geometry" />
        </mxCell>
        <mxCell id="kbJRGEqropHdvLp3n68f-128" value="Reviwed_in" style="rhombus;whiteSpace=wrap;html=1;fillColor=#ffcd28;gradientColor=#ffa500;strokeColor=#d79b00;" parent="1" vertex="1">
          <mxGeometry x="845" y="310" width="90" height="40" as="geometry" />
        </mxCell>
        <mxCell id="kbJRGEqropHdvLp3n68f-132" value="Writtten_by" style="rhombus;whiteSpace=wrap;html=1;fillColor=#ffcd28;gradientColor=#ffa500;strokeColor=#d79b00;" parent="1" vertex="1">
          <mxGeometry x="1230" y="300" width="90" height="40" as="geometry" />
        </mxCell>
        <mxCell id="kbJRGEqropHdvLp3n68f-136" value="Loaned_in" style="rhombus;whiteSpace=wrap;html=1;fillColor=#ffcd28;gradientColor=#ffa500;strokeColor=#d79b00;" parent="1" vertex="1">
          <mxGeometry x="1080" y="490" width="90" height="40" as="geometry" />
        </mxCell>
        <mxCell id="kbJRGEqropHdvLp3n68f-141" value="borrowd_by" style="rhombus;whiteSpace=wrap;html=1;fillColor=#ffcd28;gradientColor=#ffa500;strokeColor=#d79b00;" parent="1" vertex="1">
          <mxGeometry x="1410" y="490" width="100" height="40" as="geometry" />
        </mxCell>
        <mxCell id="kbJRGEqropHdvLp3n68f-145" value="Has" style="rhombus;whiteSpace=wrap;html=1;fillColor=#ffcd28;gradientColor=#ffa500;strokeColor=#d79b00;" parent="1" vertex="1">
          <mxGeometry x="1010" y="604" width="90" height="40" as="geometry" />
        </mxCell>
        <mxCell id="kbJRGEqropHdvLp3n68f-149" style="edgeStyle=orthogonalEdgeStyle;rounded=0;orthogonalLoop=1;jettySize=auto;html=1;exitX=0;exitY=0.25;exitDx=0;exitDy=0;entryX=0.657;entryY=0.9;entryDx=0;entryDy=0;entryPerimeter=0;" parent="1" source="kbJRGEqropHdvLp3n68f-2" target="kbJRGEqropHdvLp3n68f-27" edge="1">
          <mxGeometry relative="1" as="geometry" />
        </mxCell>
        <mxCell id="kbJRGEqropHdvLp3n68f-158" style="edgeStyle=orthogonalEdgeStyle;rounded=0;orthogonalLoop=1;jettySize=auto;html=1;exitX=0.25;exitY=0;exitDx=0;exitDy=0;entryX=0.771;entryY=0.833;entryDx=0;entryDy=0;entryPerimeter=0;" parent="1" source="kbJRGEqropHdvLp3n68f-8" target="kbJRGEqropHdvLp3n68f-55" edge="1">
          <mxGeometry relative="1" as="geometry" />
        </mxCell>
        <mxCell id="kbJRGEqropHdvLp3n68f-170" style="edgeStyle=orthogonalEdgeStyle;rounded=0;orthogonalLoop=1;jettySize=auto;html=1;exitX=0;exitY=0.75;exitDx=0;exitDy=0;entryX=0.4;entryY=0.067;entryDx=0;entryDy=0;entryPerimeter=0;" parent="1" source="kbJRGEqropHdvLp3n68f-6" target="kbJRGEqropHdvLp3n68f-42" edge="1">
          <mxGeometry relative="1" as="geometry" />
        </mxCell>
        <mxCell id="c0_FOmQ_EOammGazaXns-1" value="" style="endArrow=none;html=1;rounded=0;exitX=0.5;exitY=0;exitDx=0;exitDy=0;entryX=0.5;entryY=1;entryDx=0;entryDy=0;" edge="1" parent="1" source="kbJRGEqropHdvLp3n68f-118" target="kbJRGEqropHdvLp3n68f-1">
          <mxGeometry relative="1" as="geometry">
            <mxPoint x="160" y="400" as="sourcePoint" />
            <mxPoint x="320" y="400" as="targetPoint" />
          </mxGeometry>
        </mxCell>
        <mxCell id="c0_FOmQ_EOammGazaXns-2" value="1" style="resizable=0;html=1;whiteSpace=wrap;align=right;verticalAlign=bottom;" connectable="0" vertex="1" parent="c0_FOmQ_EOammGazaXns-1">
          <mxGeometry x="1" relative="1" as="geometry">
            <mxPoint y="20" as="offset" />
          </mxGeometry>
        </mxCell>
        <mxCell id="c0_FOmQ_EOammGazaXns-3" value="" style="shape=link;html=1;rounded=0;exitX=0.5;exitY=0;exitDx=0;exitDy=0;entryX=0.5;entryY=1;entryDx=0;entryDy=0;" edge="1" parent="1" source="kbJRGEqropHdvLp3n68f-7" target="kbJRGEqropHdvLp3n68f-118">
          <mxGeometry relative="1" as="geometry">
            <mxPoint x="160" y="400" as="sourcePoint" />
            <mxPoint x="320" y="400" as="targetPoint" />
          </mxGeometry>
        </mxCell>
        <mxCell id="c0_FOmQ_EOammGazaXns-4" value="M" style="resizable=0;html=1;whiteSpace=wrap;align=left;verticalAlign=bottom;" connectable="0" vertex="1" parent="c0_FOmQ_EOammGazaXns-3">
          <mxGeometry x="-1" relative="1" as="geometry" />
        </mxCell>
        <mxCell id="c0_FOmQ_EOammGazaXns-6" value="" style="endArrow=none;html=1;rounded=0;entryX=0;entryY=0.5;entryDx=0;entryDy=0;exitX=1;exitY=0.5;exitDx=0;exitDy=0;" edge="1" parent="1" source="kbJRGEqropHdvLp3n68f-1" target="kbJRGEqropHdvLp3n68f-108">
          <mxGeometry relative="1" as="geometry">
            <mxPoint x="195" y="362" as="sourcePoint" />
            <mxPoint x="355" y="362" as="targetPoint" />
          </mxGeometry>
        </mxCell>
        <mxCell id="c0_FOmQ_EOammGazaXns-7" value="1" style="resizable=0;html=1;whiteSpace=wrap;align=right;verticalAlign=bottom;" connectable="0" vertex="1" parent="c0_FOmQ_EOammGazaXns-6">
          <mxGeometry x="1" relative="1" as="geometry">
            <mxPoint x="-170" y="15" as="offset" />
          </mxGeometry>
        </mxCell>
        <mxCell id="c0_FOmQ_EOammGazaXns-8" value="" style="shape=link;html=1;rounded=0;exitX=0;exitY=0.5;exitDx=0;exitDy=0;entryX=1;entryY=0.5;entryDx=0;entryDy=0;" edge="1" parent="1" source="kbJRGEqropHdvLp3n68f-2" target="kbJRGEqropHdvLp3n68f-108">
          <mxGeometry relative="1" as="geometry">
            <mxPoint x="440" y="380" as="sourcePoint" />
            <mxPoint x="600" y="380" as="targetPoint" />
          </mxGeometry>
        </mxCell>
        <mxCell id="c0_FOmQ_EOammGazaXns-9" value="M" style="resizable=0;html=1;whiteSpace=wrap;align=left;verticalAlign=bottom;" connectable="0" vertex="1" parent="c0_FOmQ_EOammGazaXns-8">
          <mxGeometry x="-1" relative="1" as="geometry">
            <mxPoint x="-20" y="23" as="offset" />
          </mxGeometry>
        </mxCell>
        <mxCell id="c0_FOmQ_EOammGazaXns-11" value="" style="endArrow=none;html=1;rounded=0;entryX=1;entryY=0.75;entryDx=0;entryDy=0;exitX=0;exitY=0.5;exitDx=0;exitDy=0;" edge="1" parent="1" source="kbJRGEqropHdvLp3n68f-128" target="kbJRGEqropHdvLp3n68f-2">
          <mxGeometry relative="1" as="geometry">
            <mxPoint x="720" y="400" as="sourcePoint" />
            <mxPoint x="880" y="400" as="targetPoint" />
          </mxGeometry>
        </mxCell>
        <mxCell id="c0_FOmQ_EOammGazaXns-12" value="1" style="resizable=0;html=1;whiteSpace=wrap;align=right;verticalAlign=bottom;" connectable="0" vertex="1" parent="c0_FOmQ_EOammGazaXns-11">
          <mxGeometry x="1" relative="1" as="geometry">
            <mxPoint x="10" y="20" as="offset" />
          </mxGeometry>
        </mxCell>
        <mxCell id="c0_FOmQ_EOammGazaXns-13" value="" style="shape=link;html=1;rounded=0;entryX=1;entryY=0.5;entryDx=0;entryDy=0;exitX=0;exitY=0.75;exitDx=0;exitDy=0;" edge="1" parent="1" source="kbJRGEqropHdvLp3n68f-8" target="kbJRGEqropHdvLp3n68f-128">
          <mxGeometry relative="1" as="geometry">
            <mxPoint x="1040" y="330" as="sourcePoint" />
            <mxPoint x="930" y="340" as="targetPoint" />
          </mxGeometry>
        </mxCell>
        <mxCell id="c0_FOmQ_EOammGazaXns-14" value="M" style="resizable=0;html=1;whiteSpace=wrap;align=left;verticalAlign=bottom;" connectable="0" vertex="1" parent="c0_FOmQ_EOammGazaXns-13">
          <mxGeometry x="-1" relative="1" as="geometry">
            <mxPoint x="-20" y="23" as="offset" />
          </mxGeometry>
        </mxCell>
        <mxCell id="c0_FOmQ_EOammGazaXns-15" value="" style="endArrow=none;html=1;rounded=0;exitX=0;exitY=0.5;exitDx=0;exitDy=0;entryX=0.5;entryY=1;entryDx=0;entryDy=0;" edge="1" parent="1" source="kbJRGEqropHdvLp3n68f-136" target="kbJRGEqropHdvLp3n68f-128">
          <mxGeometry relative="1" as="geometry">
            <mxPoint x="1075" y="530" as="sourcePoint" />
            <mxPoint x="885" y="370" as="targetPoint" />
            <Array as="points">
              <mxPoint x="890" y="510" />
            </Array>
          </mxGeometry>
        </mxCell>
        <mxCell id="c0_FOmQ_EOammGazaXns-16" value="1" style="resizable=0;html=1;whiteSpace=wrap;align=right;verticalAlign=bottom;" connectable="0" vertex="1" parent="c0_FOmQ_EOammGazaXns-15">
          <mxGeometry x="1" relative="1" as="geometry">
            <mxPoint x="-7" y="16" as="offset" />
          </mxGeometry>
        </mxCell>
        <mxCell id="c0_FOmQ_EOammGazaXns-17" value="" style="shape=link;html=1;rounded=0;entryX=0.5;entryY=0;entryDx=0;entryDy=0;exitX=0.5;exitY=0;exitDx=0;exitDy=0;" edge="1" parent="1" source="kbJRGEqropHdvLp3n68f-6" target="kbJRGEqropHdvLp3n68f-145">
          <mxGeometry relative="1" as="geometry">
            <mxPoint x="794" y="560" as="sourcePoint" />
            <mxPoint x="954" y="560" as="targetPoint" />
            <Array as="points">
              <mxPoint x="700" y="550" />
              <mxPoint x="1055" y="550" />
            </Array>
          </mxGeometry>
        </mxCell>
        <mxCell id="c0_FOmQ_EOammGazaXns-18" value="M" style="resizable=0;html=1;whiteSpace=wrap;align=left;verticalAlign=bottom;" connectable="0" vertex="1" parent="c0_FOmQ_EOammGazaXns-17">
          <mxGeometry x="-1" relative="1" as="geometry" />
        </mxCell>
        <mxCell id="c0_FOmQ_EOammGazaXns-20" value="" style="shape=link;html=1;rounded=0;exitX=0.25;exitY=0;exitDx=0;exitDy=0;entryX=1;entryY=0.5;entryDx=0;entryDy=0;" edge="1" parent="1" source="kbJRGEqropHdvLp3n68f-5" target="kbJRGEqropHdvLp3n68f-136">
          <mxGeometry relative="1" as="geometry">
            <mxPoint x="1100" y="500" as="sourcePoint" />
            <mxPoint x="1260" y="500" as="targetPoint" />
            <Array as="points">
              <mxPoint x="1355" y="510" />
            </Array>
          </mxGeometry>
        </mxCell>
        <mxCell id="c0_FOmQ_EOammGazaXns-21" value="M" style="resizable=0;html=1;whiteSpace=wrap;align=left;verticalAlign=bottom;" connectable="0" vertex="1" parent="c0_FOmQ_EOammGazaXns-20">
          <mxGeometry x="-1" relative="1" as="geometry" />
        </mxCell>
        <mxCell id="c0_FOmQ_EOammGazaXns-25" value="" style="shape=link;html=1;rounded=0;exitX=0.75;exitY=0;exitDx=0;exitDy=0;entryX=0;entryY=0.5;entryDx=0;entryDy=0;" edge="1" parent="1" source="kbJRGEqropHdvLp3n68f-5" target="kbJRGEqropHdvLp3n68f-141">
          <mxGeometry relative="1" as="geometry">
            <mxPoint x="1390" y="500" as="sourcePoint" />
            <mxPoint x="1550" y="500" as="targetPoint" />
            <Array as="points">
              <mxPoint x="1385" y="510" />
            </Array>
          </mxGeometry>
        </mxCell>
        <mxCell id="c0_FOmQ_EOammGazaXns-26" value="M" style="resizable=0;html=1;whiteSpace=wrap;align=left;verticalAlign=bottom;" connectable="0" vertex="1" parent="c0_FOmQ_EOammGazaXns-25">
          <mxGeometry x="-1" relative="1" as="geometry" />
        </mxCell>
        <mxCell id="c0_FOmQ_EOammGazaXns-28" value="" style="endArrow=none;html=1;rounded=0;entryX=0.5;entryY=1;entryDx=0;entryDy=0;exitX=0.5;exitY=0;exitDx=0;exitDy=0;" edge="1" parent="1" source="kbJRGEqropHdvLp3n68f-141" target="kbJRGEqropHdvLp3n68f-3">
          <mxGeometry relative="1" as="geometry">
            <mxPoint x="1390" y="500" as="sourcePoint" />
            <mxPoint x="1550" y="500" as="targetPoint" />
          </mxGeometry>
        </mxCell>
        <mxCell id="c0_FOmQ_EOammGazaXns-29" value="1" style="resizable=0;html=1;whiteSpace=wrap;align=right;verticalAlign=bottom;" connectable="0" vertex="1" parent="c0_FOmQ_EOammGazaXns-28">
          <mxGeometry x="1" relative="1" as="geometry">
            <mxPoint y="15" as="offset" />
          </mxGeometry>
        </mxCell>
        <mxCell id="c0_FOmQ_EOammGazaXns-30" value="" style="endArrow=none;html=1;rounded=0;entryX=0;entryY=0.5;entryDx=0;entryDy=0;exitX=1;exitY=0.5;exitDx=0;exitDy=0;" edge="1" parent="1" source="kbJRGEqropHdvLp3n68f-132" target="kbJRGEqropHdvLp3n68f-3">
          <mxGeometry relative="1" as="geometry">
            <mxPoint x="1220" y="500" as="sourcePoint" />
            <mxPoint x="1380" y="500" as="targetPoint" />
          </mxGeometry>
        </mxCell>
        <mxCell id="c0_FOmQ_EOammGazaXns-31" value="1" style="resizable=0;html=1;whiteSpace=wrap;align=right;verticalAlign=bottom;" connectable="0" vertex="1" parent="c0_FOmQ_EOammGazaXns-30">
          <mxGeometry x="1" relative="1" as="geometry" />
        </mxCell>
        <mxCell id="c0_FOmQ_EOammGazaXns-32" value="" style="shape=link;html=1;rounded=0;exitX=1;exitY=0.5;exitDx=0;exitDy=0;" edge="1" parent="1" source="kbJRGEqropHdvLp3n68f-8" target="kbJRGEqropHdvLp3n68f-132">
          <mxGeometry relative="1" as="geometry">
            <mxPoint x="1120" y="330" as="sourcePoint" />
            <mxPoint x="1380" y="500" as="targetPoint" />
          </mxGeometry>
        </mxCell>
        <mxCell id="c0_FOmQ_EOammGazaXns-33" value="M" style="resizable=0;html=1;whiteSpace=wrap;align=left;verticalAlign=bottom;" connectable="0" vertex="1" parent="c0_FOmQ_EOammGazaXns-32">
          <mxGeometry x="-1" relative="1" as="geometry">
            <mxPoint y="20" as="offset" />
          </mxGeometry>
        </mxCell>
        <mxCell id="c0_FOmQ_EOammGazaXns-35" value="" style="endArrow=none;html=1;rounded=0;entryX=0;entryY=0.25;entryDx=0;entryDy=0;exitX=0.5;exitY=1;exitDx=0;exitDy=0;" edge="1" parent="1" source="kbJRGEqropHdvLp3n68f-145" target="kbJRGEqropHdvLp3n68f-5">
          <mxGeometry relative="1" as="geometry">
            <mxPoint x="1120" y="500" as="sourcePoint" />
            <mxPoint x="1280" y="500" as="targetPoint" />
            <Array as="points">
              <mxPoint x="1055" y="708" />
            </Array>
          </mxGeometry>
        </mxCell>
        <mxCell id="c0_FOmQ_EOammGazaXns-36" value="1" style="resizable=0;html=1;whiteSpace=wrap;align=right;verticalAlign=bottom;" connectable="0" vertex="1" parent="c0_FOmQ_EOammGazaXns-35">
          <mxGeometry x="1" relative="1" as="geometry" />
        </mxCell>
      </root>
    </mxGraphModel>
  </diagram>
</mxfile>
